<?xml version="1.0" encoding="UTF-8"?>
<svg id="Layer_1" data-name="Layer 1" xmlns="http://www.w3.org/2000/svg" viewBox="0 0 288.04 288.68">
  <defs>
    <style>
      .cls-1 {
        stroke-width: 0px;
      }
    </style>
  </defs>
  <path class="cls-1" d="m203.14,49.26c-12.23-7.65-24.85-12.55-38.36-14.98-59.64-10.72-115.81,26.04-129.8,84.82-14.85,62.4,27.39,125.68,90.6,135.75,62.46,9.94,119.4-31.38,129.26-93.95.87-5.53.82-11.21,1.24-16.81.59-7.8,5.65-13.89,12.67-15.29,7.18-1.43,14.59,1.93,17.53,8.5,1.18,2.64,1.76,5.77,1.74,8.68-.32,67.28-48.16,125.76-114.08,139.59C94.66,302.2,17.36,250.63,2.48,171.16-12.22,92.66,40.04,16.83,118.83,2.9c36.99-6.54,71.52.66,103.32,20.73,1.06.67,2.1,1.36,3.15,2.03.09.06.24,0,.85,0-.47-1.6-.9-3.07-1.32-4.54-2.47-8.63,1.98-17.3,10.37-20.19,8.35-2.88,17.58,1.12,20.54,9.57,5.74,16.37,11.32,32.81,16.46,49.38,3.21,10.33-4.23,20.3-15.19,20.51-16.37.32-32.76.24-49.13,0-7.93-.11-13.84-5.39-15.45-12.87-1.44-6.66,1.98-13.46,8.62-17.14.52-.29,1.05-.57,2.1-1.13Z"/>
</svg>