<?xml version="1.0" encoding="UTF-8"?>
<svg id="Layer_2" data-name="Layer 2" xmlns="http://www.w3.org/2000/svg" viewBox="0 0 354.8 360.26">
  <defs>
    <style>
      .cls-1 {
        stroke-width: 0px;
      }
    </style>
  </defs>
  <g id="Layer_1-2" data-name="Layer 1">
    <g>
      <path class="cls-1" d="m184.6,26.98c47.9,47.91,95.7,95.73,143.42,143.47,4.25-4.04,8.98-8.1,13.14-12.68,2.56-2.82,1.02-5.8-1.44-8.26-9.65-9.62-19.28-19.27-28.91-28.91-25.73-25.73-51.45-51.46-77.18-77.19-.96-.96-1.88-1.97-3.02-3.16,3.02-2.79,5.89-5.46,9.24-8.56,2.2,2.58,4.54,5.32,7.37,8.64,3.02-3.18,5.4-5.85,7.95-8.35,8.19-8.05,18.82-8.07,26.97.03,13.75,13.66,27.45,27.36,41.11,41.12,8.12,8.17,8.1,18.82.06,26.98-2.45,2.49-5.06,4.83-7.83,7.46,1.2,1.28,2.09,2.29,3.03,3.23,9.89,9.91,19.81,19.8,29.7,29.72,8.8,8.83,8.81,19.25.07,28.05-4.93,4.97-9.87,9.94-14.86,14.85-3.87,3.81-6.81,3.84-10.66.03-9.14-9.07-18.22-18.2-27.33-27.31-.93-.93-1.9-1.81-3.39-3.23-1.2,9.16-2.29,17.53-3.4,25.9-3.14,23.77-6.3,47.54-9.43,71.31-3.11,23.65-6.21,47.3-9.31,70.95-1.04,7.92-1.94,15.87-3.15,23.77-1.38,8.98-8.9,15.37-18.06,15.38-44.88.04-89.76.04-134.65,0-9.69,0-17.13-6.75-18.39-16.32-5.69-43.21-11.41-86.42-17.1-129.63-1.19-9.02-2.3-18.05-3.51-27.61,4.14-.54,8-1.05,12.2-1.6,1.16,8.72,2.27,16.98,3.36,25.25,3.16,23.89,6.31,47.79,9.45,71.69,2.59,19.69,5.2,39.37,7.76,59.06.66,5.04,2.52,6.88,7.49,6.89,44.01.02,88.01.02,132.02,0,4.94,0,6.73-1.84,7.41-6.97,4.65-35.29,9.35-70.57,14.01-105.85,4.02-30.46,8.03-60.91,11.97-91.38.14-1.05-.36-2.49-1.07-3.29-2.15-2.43-4.39-4.84-6.91-6.86-1.2-.96-3.12-1.39-4.72-1.39-40.01-.07-80.01-.06-120.02-.06-21,0-42.01,0-63.01,0-1.35,0-2.71,0-4.57,0,1.23,9.81,2.43,19.28,3.67,29.18-4.12.57-7.89,1.09-12.12,1.67-.86-6.17-1.69-12.06-2.49-17.95-.71-5.2-1.31-10.41-2.07-15.6-1.02-6.96,1.14-9.59,8.14-9.59,59.51,0,119.02,0,178.53,0,1.36,0,2.72,0,5,0-1.42-1.46-2.3-2.39-3.21-3.3-27.58-27.59-55.16-55.17-82.74-82.76-5.45-5.45-5.46-7.71-.11-13.08,4.68-4.69,9.33-9.42,14.07-14.05,8.26-8.07,19.12-8.03,27.35.03,4.28,4.19,8.53,8.41,12.98,12.8-3.09,2.9-5.87,5.51-9.1,8.54-3.53-3.52-7.3-7.27-11.07-11.02-5.42-5.41-7.62-5.43-12.99-.04-3.18,3.19-6.33,6.4-9.48,9.61-.16.16-.19.45-.16.39Zm71.93,20.71c17.19,17.2,33.95,33.95,51.13,51.14,1.93-2.11,4.08-4.54,6.33-6.89,3.85-4.02,3.91-6.62.03-10.54-5.9-5.94-11.84-11.85-17.76-17.77-7.6-7.6-15.18-15.23-22.81-22.79-3.02-2.99-5.78-3.34-8.6-.93-3.01,2.58-5.81,5.41-8.31,7.78Z"/>
      <path class="cls-1" d="m115.12,240.07c0-22.13-.05-44.25.03-66.38.03-8.75,6.44-16.09,15.01-17.63,8.45-1.51,17.11,3.39,20.05,11.57.74,2.07,1.14,4.38,1.14,6.58.06,43.88.07,87.75.03,131.63,0,10.45-8,18.4-18.2,18.38-10.16-.03-18.03-8.01-18.06-18.53-.05-21.88-.02-43.75-.01-65.63Zm24-.04c0-21.5.01-43-.01-64.5,0-4.48-2.27-7.27-5.78-7.32-3.52-.05-5.83,2.75-5.93,7.18-.01.5,0,1,0,1.5,0,42.12,0,84.24,0,126.37,0,1-.05,2.01.06,3,.38,3.32,2.93,5.83,5.92,5.61,3.3-.25,5.2-2.21,5.67-5.47.16-1.1.07-2.25.07-3.37,0-21,0-42,0-63Z"/>
      <path class="cls-1" d="m199.42,240.45c0,21.88.04,43.75-.02,65.63-.03,9.29-6.89,17.02-15.8,18.07-9.42,1.11-17.91-4.88-20.06-14.21-.3-1.32-.39-2.72-.39-4.09-.02-43.88-.04-87.75,0-131.63,0-9.53,6.96-17.34,15.99-18.27,9.36-.96,17.64,4.85,19.8,14.05.42,1.8.45,3.71.45,5.57.03,21.63.02,43.25.02,64.88Zm-24-.39c0,21.5-.01,43,.01,64.5,0,4.5,2.25,7.28,5.76,7.34,3.52.07,5.85-2.74,5.95-7.16.01-.5,0-1,0-1.5,0-42.12,0-84.24,0-126.37,0-1,.06-2.01-.05-3-.37-3.33-2.9-5.83-5.9-5.63-3.31.23-5.2,2.2-5.69,5.45-.16,1.1-.08,2.25-.08,3.37,0,21,0,42,0,63Z"/>
      <path class="cls-1" d="m247.43,240.14c0,22,.04,44-.02,66-.03,9.42-7.21,17.25-16.24,18.03-9.51.82-17.87-5.36-19.74-14.67-.27-1.33-.28-2.73-.28-4.1-.01-43.5-.03-87,0-130.5,0-11.05,7.8-19.07,18.32-19.01,10.29.06,17.94,8.11,17.95,19,.03,21.75,0,43.5,0,65.25Zm-12.28.1c0-21,0-42,0-63,0-1.12.06-2.26-.05-3.37-.36-3.33-2.89-5.84-5.89-5.63-3.31.23-5.2,2.2-5.7,5.44-.15.98-.07,2-.07,3,0,42.25,0,84.49,0,126.74,0,1-.08,2.02.07,3,.5,3.25,2.39,5.21,5.69,5.45,3,.21,5.54-2.3,5.89-5.63.12-1.11.06-2.25.06-3.37,0-20.87,0-41.75,0-62.62Z"/>
      <path class="cls-1" d="m121.4,60.42c.15,11.05-3.91,21.26-6.5,31.75-.88,3.56-4.2,4.29-7.62,3.86-8.67-1.09-17.34-2.18-26-3.28-6.68-.85-13.38-1.62-20.04-2.61-5.83-.87-7.87-5.61-4.5-10.39,2.88-4.08,6.16-7.89,8.91-12.05,4.61-6.95,9.06-14,13.34-21.16,2.55-4.27,4.28-5.31,9.13-4.33,8.8,1.78,17.62,3.5,26.41,5.33,5.63,1.17,6.84,2.73,6.87,8.37,0,1.5,0,3,0,4.5Zm-48.71,18.76c11.04,1.38,21.26,2.66,32.23,4.04,1.42-7.35,2.9-14.49,4.06-21.67.14-.84-1.29-2.59-2.26-2.83-5.07-1.25-10.24-2.05-15.34-3.21-2.08-.47-3,.14-4.04,1.97-2.52,4.42-5.35,8.66-8.18,12.89-1.92,2.86-4.08,5.56-6.47,8.81Z"/>
      <path class="cls-1" d="m154.24,108.14c-4.63,0-9.25.05-13.88-.01-5.86-.07-8.58-3.81-6.5-9.17,3.69-9.55,7.39-19.1,11.49-28.48.86-1.96,3.24-3.92,5.32-4.56,7.39-2.25,14.95-3.94,22.45-5.82,3.12-.78,5.61.14,7.55,2.76,5.66,7.63,11.43,15.17,17.06,22.83,2.99,4.07,2.05,7.89-2.47,10.21-7.45,3.82-14.93,7.55-22.47,11.19-1.4.68-3.1.96-4.68,1-4.62.13-9.25.05-13.88.05Zm29.23-20.87c-3.18-4.25-6.26-8.48-9.5-12.58-.55-.7-1.89-1.34-2.7-1.17-4.75,1-9.45,2.21-14.14,3.45-.64.17-1.4.77-1.64,1.37-2.36,5.69-4.63,11.42-6.87,17.01,12.88,2.02,24.46.16,34.85-8.08Z"/>
      <path class="cls-1" d="m2.02,34.74c-.57-2.86-1.3-6.5-2.02-10.11,14.26-5.64,42.84.11,56.38,12.92-2.3,3-4.63,6.03-6.41,8.34-8.03-3.28-15.33-7.34-23.16-9.17-7.73-1.81-15.99-1.38-24.79-1.98Z"/>
      <path class="cls-1" d="m85.04,29.97h-11.66c-1.33-10.58-7.18-16.73-18.03-18.04V.42c13.59-3.38,31.3,14.03,29.69,29.54Z"/>
      <path class="cls-1" d="m109.23.08v11.68h-11.88V.08h11.88Z"/>
      <path class="cls-1" d="m31.17,60.11v11.8h-11.83v-11.8h11.83Z"/>
    </g>
  </g>
</svg>